<svg width="35" height="35" viewBox="0 0 35 35" fill="none" xmlns="http://www.w3.org/2000/svg">
<g clip-path="url(#clip0_31_5875)">
<g opacity="0.01">
<path opacity="0.01" d="M35 0H0V35H35V0Z" fill="white"/>
</g>
<path fill-rule="evenodd" clip-rule="evenodd" d="M13.3315 21.3799C13.0475 21.0209 12.7025 20.2869 12.0885 19.3959C11.7405 18.8919 10.8775 17.9429 10.6205 17.4609C10.3975 17.0349 10.4215 16.8439 10.4745 16.4909C10.5685 15.8629 11.2125 15.3739 11.8995 15.4399C12.4185 15.4889 12.8585 15.8319 13.2545 16.1559C13.4935 16.3509 13.7875 16.7299 13.9645 16.9439C14.1275 17.1399 14.1675 17.2209 14.3415 17.4529C14.5715 17.7599 14.6435 17.9119 14.5555 17.5739C14.4845 17.0779 14.3685 16.2309 14.2005 15.4819C14.0725 14.9139 14.0415 14.8249 13.9195 14.3889C13.7905 13.9249 13.7245 13.5999 13.6035 13.1079C13.5195 12.7599 13.3685 12.0489 13.3275 11.6489C13.2705 11.1019 13.2405 10.2099 13.5915 9.7999C13.8665 9.4789 14.4975 9.3819 14.8885 9.5799C15.4005 9.8389 15.6915 10.5829 15.8245 10.8799C16.0635 11.4139 16.2115 12.0309 16.3405 12.8409C16.5045 13.8719 16.8065 15.3029 16.8165 15.6039C16.8405 15.2349 16.7485 14.4579 16.8125 14.1039C16.8705 13.7829 17.1405 13.4099 17.4785 13.3089C17.7645 13.2239 18.0995 13.1929 18.3945 13.2539C18.7075 13.3179 19.0375 13.5419 19.1605 13.7529C19.5225 14.3769 19.5295 15.6519 19.5445 15.5839C19.6305 15.2079 19.6155 14.3549 19.8285 13.9999C19.9685 13.7659 20.3255 13.5549 20.5155 13.5209C20.8095 13.4689 21.1705 13.4529 21.4795 13.5129C21.7285 13.5619 22.0655 13.8579 22.1565 13.9999C22.3745 14.3439 22.4985 15.3169 22.5355 15.6579C22.5505 15.7989 22.6095 15.2659 22.8285 14.9219C23.2345 14.2829 24.6715 14.1589 24.7265 15.5609C24.7515 16.2149 24.7465 16.1849 24.7465 16.6249C24.7465 17.1419 24.7345 17.4529 24.7065 17.8269C24.6755 18.2269 24.5895 19.1309 24.4645 19.5689C24.3785 19.8699 24.0935 20.5469 23.8125 20.9529C23.8125 20.9529 22.7385 22.2029 22.6215 22.7659C22.5035 23.3279 22.5425 23.3319 22.5195 23.7309C22.4965 24.1289 22.6405 24.6529 22.6405 24.6529C22.6405 24.6529 21.8385 24.7569 21.4065 24.6879C21.0155 24.6249 20.5315 23.8469 20.4065 23.6089C20.2345 23.2809 19.8675 23.3439 19.7245 23.5859C19.4995 23.9689 19.0155 24.6559 18.6735 24.6989C18.0055 24.7829 16.6195 24.7299 15.5345 24.7189C15.5345 24.7189 15.7195 23.7079 15.3075 23.3609C15.0025 23.1019 14.4775 22.5769 14.1635 22.3009L13.3315 21.3799Z" fill="white"/>
<path fill-rule="evenodd" clip-rule="evenodd" d="M13.3315 21.3799C13.0475 21.0209 12.7025 20.2869 12.0885 19.3959C11.7405 18.8919 10.8775 17.9429 10.6205 17.4609C10.3975 17.0349 10.4215 16.8439 10.4745 16.4909C10.5685 15.8629 11.2125 15.3739 11.8995 15.4399C12.4185 15.4889 12.8585 15.8319 13.2545 16.1559C13.4935 16.3509 13.7875 16.7299 13.9645 16.9439C14.1275 17.1399 14.1675 17.2209 14.3415 17.4529C14.5715 17.7599 14.6435 17.9119 14.5555 17.5739C14.4845 17.0779 14.3685 16.2309 14.2005 15.4819C14.0725 14.9139 14.0415 14.8249 13.9195 14.3889C13.7905 13.9249 13.7245 13.5999 13.6035 13.1079C13.5195 12.7599 13.3685 12.0489 13.3275 11.6489C13.2705 11.1019 13.2405 10.2099 13.5915 9.7999C13.8665 9.4789 14.4975 9.3819 14.8885 9.5799C15.4005 9.8389 15.6915 10.5829 15.8245 10.8799C16.0635 11.4139 16.2115 12.0309 16.3405 12.8409C16.5045 13.8719 16.8065 15.3029 16.8165 15.6039C16.8405 15.2349 16.7485 14.4579 16.8125 14.1039C16.8705 13.7829 17.1405 13.4099 17.4785 13.3089C17.7645 13.2239 18.0995 13.1929 18.3945 13.2539C18.7075 13.3179 19.0375 13.5419 19.1605 13.7529C19.5225 14.3769 19.5295 15.6519 19.5445 15.5839C19.6305 15.2079 19.6155 14.3549 19.8285 13.9999C19.9685 13.7659 20.3255 13.5549 20.5155 13.5209C20.8095 13.4689 21.1705 13.4529 21.4795 13.5129C21.7285 13.5619 22.0655 13.8579 22.1565 13.9999C22.3745 14.3439 22.4985 15.3169 22.5355 15.6579C22.5505 15.7989 22.6095 15.2659 22.8285 14.9219C23.2345 14.2829 24.6715 14.1589 24.7265 15.5609C24.7515 16.2149 24.7465 16.1849 24.7465 16.6249C24.7465 17.1419 24.7345 17.4529 24.7065 17.8269C24.6755 18.2269 24.5895 19.1309 24.4645 19.5689C24.3785 19.8699 24.0935 20.5469 23.8125 20.9529C23.8125 20.9529 22.7385 22.2029 22.6215 22.7659C22.5035 23.3279 22.5425 23.3319 22.5195 23.7309C22.4965 24.1289 22.6405 24.6529 22.6405 24.6529C22.6405 24.6529 21.8385 24.7569 21.4065 24.6879C21.0155 24.6249 20.5315 23.8469 20.4065 23.6089C20.2345 23.2809 19.8675 23.3439 19.7245 23.5859C19.4995 23.9689 19.0155 24.6559 18.6735 24.6989C18.0055 24.7829 16.6195 24.7299 15.5345 24.7189C15.5345 24.7189 15.7195 23.7079 15.3075 23.3609C15.0025 23.1019 14.4775 22.5769 14.1635 22.3009L13.3315 21.3799Z" stroke="#111111" stroke-width="0.75" stroke-linecap="round" stroke-linejoin="round"/>
<path d="M21.5664 21.7344V18.2754" stroke="#111111" stroke-width="0.75" stroke-linecap="round"/>
<path d="M19.5508 21.7461L19.5348 18.2731" stroke="#111111" stroke-width="0.75" stroke-linecap="round"/>
<path d="M17.5547 18.3047L17.5757 21.7307" stroke="#111111" stroke-width="0.75" stroke-linecap="round"/>
</g>
<defs>
<clipPath id="clip0_31_5875">
<rect width="35" height="35" fill="white"/>
</clipPath>
</defs>
</svg>
